<svg viewBox="0 0 2000 2000" xmlns="http://www.w3.org/2000/svg" fill="#C4A882">
  <path d="M1417.25,803.02c-87.42,124.95-234.65,151.24-375.92,91.11-8.7,134.89-77.29,246.24-187.78,286.8-122.75,45.06-256.49,20.5-333.61-84.68l-117.24-21.81c25.4,157.94,135.7,258.69,250.71,308.17,245.44,105.6,397.46-45.13,454.81-41.81,6.53.38,7.04,26.48-.56,32.39-66.71,51.89-202.18,84.15-311.19,99.75,127.36,64.88,286.38,55.79,414.78,3.85,229.7-92.91,344.72-347.04,284.52-582.81-10.8-42.3-39.46-75.73-78.52-90.98Z" />
  <path d="M610.87,1043.52l90.32-293.17-238.86-43.85c-21.42,122.26-12.23,324.62,148.54,337.02ZM482.3,734.81l188.83,32.46-74.45,246.36c-111.31,3.98-134.45-192.56-114.38-278.81Z" />
  <path d="M726.23,734.86c-2.6-35.57-13.09-64.27-29.02-83.77l-197.85-17.36c-22.67-1.99-50.41,24.08-48.29,49.18l275.15,51.95Z" />
  <path d="M521.05,1077.54c21.32-66.25-50.36-30.6-77.74-174.27-44.39,38.94-66.84,98.47-37.48,149.31l115.22,24.96Z" />
  <path d="M1618.29,555.63c-45.45-77.14-151.07-92.6-228.82-64.32-55.58-80.46-136.72-107.75-224.7-117.94-25.27-28.52-58.67-62.38-88.99-78.5-62.34-33.15-127.18-8.51-156.65,45.8-38.23,70.46-53.42,147.93,21.3,205.5-38.63,129.16,18.76,262.11,140.37,312.98,119.99,50.19,261.45,11.4,323.81-113.21,58.2,29.68,115.53,33.35,165.51-20.08,34.73-37.12,76.15-122.73,48.16-170.24Z" />
  <path d="M772.08,410.99c-26.06,20.49-53.27,38.62-84.58,40.79-63.42,4.4-106.93,55.75-87.02,110.72,31.47-111.13,193.43-.19,171.6-151.51Z" />
  <path d="M661.55,528.97c-8.45,3.2-19.34,12.16-26.54,39.58,5.42-2.15,14.49-5.36,26.08-7.45,31.11-5.61,46,3.04,59.6-5.59,6.72-4.27,14.95-13.92,16.76-39.11-3.73,3.24-10.15,8.08-19.09,11.18-23.98,8.3-39.92-5-56.81,1.4Z" />
</svg>
